<svg width="87" height="76" viewBox="0 0 87 76" fill="none" xmlns="http://www.w3.org/2000/svg">
<path d="M68 34C68 52.7777 52.7777 68 34 68C15.2223 68 0 52.7777 0 34C0 15.2223 15.2223 0 34 0C52.7777 0 68 15.2223 68 34Z" fill="#4F4F4F"/>
<g filter="url(#filter0_d_4517_146)">
<path d="M83 34C83 52.7777 67.7777 68 49 68C30.2223 68 15 52.7777 15 34C15 15.2223 30.2223 0 49 0C67.7777 0 83 15.2223 83 34Z" fill="#F8B76B"/>
</g>
<path fill-rule="evenodd" clip-rule="evenodd" d="M39.1112 24.6663H59.1112C60.3334 24.6663 61.3334 25.6663 61.3334 26.8885V41.3329C61.3334 42.5551 60.3334 43.5551 59.1112 43.5551H39.1112C37.8889 43.5551 36.8889 42.5551 36.8889 41.3329V26.8885C36.8889 25.6663 37.8889 24.6663 39.1112 24.6663ZM39.1112 26.8885V41.3329H48.0001V26.8885H39.1112ZM59.1112 41.3329H50.2223V26.8885H59.1112V41.3329ZM58.0001 30.7774H51.3334V32.444H58.0001V30.7774ZM51.3334 33.5551H58.0001V35.2218H51.3334V33.5551ZM58.0001 36.3329H51.3334V37.9996H58.0001V36.3329Z" fill="white"/>
<defs>
<filter id="filter0_d_4517_146" x="11" y="0" width="76" height="76" filterUnits="userSpaceOnUse" color-interpolation-filters="sRGB">
<feFlood flood-opacity="0" result="BackgroundImageFix"/>
<feColorMatrix in="SourceAlpha" type="matrix" values="0 0 0 0 0 0 0 0 0 0 0 0 0 0 0 0 0 0 127 0" result="hardAlpha"/>
<feOffset dy="4"/>
<feGaussianBlur stdDeviation="2"/>
<feColorMatrix type="matrix" values="0 0 0 0 0 0 0 0 0 0 0 0 0 0 0 0 0 0 0.1 0"/>
<feBlend mode="normal" in2="BackgroundImageFix" result="effect1_dropShadow_4517_146"/>
<feBlend mode="normal" in="SourceGraphic" in2="effect1_dropShadow_4517_146" result="shape"/>
</filter>
</defs>
</svg>
