<svg width="87" height="76" viewBox="0 0 87 76" fill="none" xmlns="http://www.w3.org/2000/svg">
<path d="M68 34C68 52.7777 52.7777 68 34 68C15.2223 68 0 52.7777 0 34C0 15.2223 15.2223 0 34 0C52.7777 0 68 15.2223 68 34Z" fill="#4F4F4F"/>
<g filter="url(#filter0_d_4517_145)">
<path d="M83 34C83 52.7777 67.7777 68 49 68C30.2223 68 15 52.7777 15 34C15 15.2223 30.2223 0 49 0C67.7777 0 83 15.2223 83 34Z" fill="#8785FF"/>
<path fill-rule="evenodd" clip-rule="evenodd" d="M54.0371 23.9261H37.6667C36.9741 23.9261 36.4074 24.4928 36.4074 25.1854V42.815L41.4445 37.778H54.0371C54.7297 37.778 55.2963 37.2113 55.2963 36.5187V25.1854C55.2963 24.4928 54.7297 23.9261 54.0371 23.9261ZM52.7778 26.4446V35.2594H40.3993L39.6563 36.0024L38.926 36.7327V26.4446H52.7778ZM57.8149 28.9632H60.3334C61.026 28.9632 61.5926 29.5299 61.5926 30.2225V49.1114L56.5556 44.0743H42.7037C42.0111 44.0743 41.4445 43.5077 41.4445 42.8151V40.2965H57.8149V28.9632Z" fill="white"/>
</g>
<defs>
<filter id="filter0_d_4517_145" x="11" y="0" width="76" height="76" filterUnits="userSpaceOnUse" color-interpolation-filters="sRGB">
<feFlood flood-opacity="0" result="BackgroundImageFix"/>
<feColorMatrix in="SourceAlpha" type="matrix" values="0 0 0 0 0 0 0 0 0 0 0 0 0 0 0 0 0 0 127 0" result="hardAlpha"/>
<feOffset dy="4"/>
<feGaussianBlur stdDeviation="2"/>
<feComposite in2="hardAlpha" operator="out"/>
<feColorMatrix type="matrix" values="0 0 0 0 0 0 0 0 0 0 0 0 0 0 0 0 0 0 0.25 0"/>
<feBlend mode="normal" in2="BackgroundImageFix" result="effect1_dropShadow_4517_145"/>
<feBlend mode="normal" in="SourceGraphic" in2="effect1_dropShadow_4517_145" result="shape"/>
</filter>
</defs>
</svg>
