<svg width="124" height="83" viewBox="0 0 124 83" fill="none" xmlns="http://www.w3.org/2000/svg">
<path d="M82.6667 41.3333C82.6667 64.1611 64.1611 82.6667 41.3333 82.6667C18.5056 82.6667 0 64.1611 0 41.3333C0 18.5056 18.5056 0 41.3333 0C64.1611 0 82.6667 18.5056 82.6667 41.3333Z" fill="#E0E0E0"/>
<path fill-rule="evenodd" clip-rule="evenodd" d="M41.3334 26.7451C37.3034 26.7451 34.0392 30.0092 34.0392 34.0392C34.0392 38.0692 37.3034 41.3333 41.3334 41.3333C45.3634 41.3333 48.6275 38.0692 48.6275 34.0392C48.6275 30.0092 45.3634 26.7451 41.3334 26.7451ZM44.9804 34.0392C44.9804 32.0333 43.3392 30.3921 41.3334 30.3921C39.3275 30.3921 37.6863 32.0333 37.6863 34.0392C37.6863 36.0451 39.3275 37.6863 41.3334 37.6863C43.3392 37.6863 44.9804 36.0451 44.9804 34.0392ZM52.2745 52.2745C51.9098 50.9798 46.2569 48.6274 41.3334 48.6274C36.4281 48.6274 30.8116 50.9616 30.3922 52.2745H52.2745ZM26.7451 52.2745C26.7451 47.4239 36.4645 44.9804 41.3334 44.9804C46.2022 44.9804 55.9216 47.4239 55.9216 52.2745V55.9216H26.7451V52.2745Z" fill="#4F4F4F"/>
<path d="M124 41.3333C124 64.1611 105.494 82.6667 82.6666 82.6667C59.8388 82.6667 41.3333 64.1611 41.3333 41.3333C41.3333 18.5056 59.8388 0 82.6666 0C105.494 0 124 18.5056 124 41.3333Z" fill="#2F80ED"/>
<path fill-rule="evenodd" clip-rule="evenodd" d="M82.6666 26.7451C78.6366 26.7451 75.3725 30.0092 75.3725 34.0392C75.3725 38.0692 78.6366 41.3333 82.6666 41.3333C86.6966 41.3333 89.9607 38.0692 89.9607 34.0392C89.9607 30.0092 86.6966 26.7451 82.6666 26.7451ZM86.3137 34.0392C86.3137 32.0333 84.6725 30.3921 82.6666 30.3921C80.6607 30.3921 79.0195 32.0333 79.0195 34.0392C79.0195 36.0451 80.6607 37.6863 82.6666 37.6863C84.6725 37.6863 86.3137 36.0451 86.3137 34.0392ZM93.6078 52.2745C93.2431 50.9798 87.5901 48.6274 82.6666 48.6274C77.7613 48.6274 72.1448 50.9616 71.7254 52.2745H93.6078ZM68.0784 52.2745C68.0784 47.4239 77.7978 44.9804 82.6666 44.9804C87.5354 44.9804 97.2548 47.4239 97.2548 52.2745V55.9216H68.0784V52.2745Z" fill="white"/>
</svg>
